<?xml version="1.0" encoding="UTF-8"?>
<svg version="1.1" xmlns="http://www.w3.org/2000/svg" width="500" height="500">
<path d="M0 0 C165 0 330 0 500 0 C500 165 500 330 500 500 C335 500 170 500 0 500 C0 335 0 170 0 0 Z " fill="#101729" transform="translate(0,0)"/>
<path d="M0 0 C165 0 330 0 500 0 C500 165 500 330 500 500 C335 500 170 500 0 500 C0 335 0 170 0 0 Z M30 30 C30 175.2 30 320.4 30 470 C175.2 470 320.4 470 470 470 C470 324.8 470 179.6 470 30 C324.8 30 179.6 30 30 30 Z " fill="#FFD700" transform="translate(0,0)"/>
<path d="M0 0 C52.30508475 0 52.30508475 0 64.234375 11.07421875 C71.95245483 19.14440077 73.56920868 26.5432938 73.56079102 37.54638672 C73.22672408 46.33283123 69.67032279 53.32500373 63.875 59.875 C56.84830272 66.21616584 49.36064437 69.41400908 40 69 C41.11700677 70.42164498 42.23402222 71.84328314 43.35107422 73.26489258 C44.34112626 74.525034 45.33103064 75.78529145 46.32080078 77.0456543 C48.78474935 80.18282346 51.25030703 83.31866435 53.72265625 86.44921875 C58.92121213 93.03679664 64.07405644 99.6586019 69.1875 106.3125 C69.76483887 107.06055908 70.34217773 107.80861816 70.93701172 108.5793457 C71.46697754 109.27116943 71.99694336 109.96299316 72.54296875 110.67578125 C73.01758545 111.29364502 73.49220215 111.91150879 73.98120117 112.5480957 C75 114 75 114 75 115 C69.54513752 116.37096943 64.34041455 117.18160158 59 115 C53.08448303 109.98953847 48.95476857 103.12589891 44.75537109 96.68457031 C42.42683312 93.12342934 39.94147551 89.68869541 37.4375 86.25 C35.2906592 83.286323 33.19890889 80.33586255 31.33203125 77.18359375 C29.63194266 74.29246885 29.63194266 74.29246885 26 71 C19.07 70.505 19.07 70.505 12 70 C12 84.85 12 99.7 12 115 C8.04 115 4.08 115 0 115 C0 77.05 0 39.1 0 0 Z " fill="#FAD300" transform="translate(269,89)"/>
<path d="M0 0 C51.66666667 0 51.66666667 0 63.625 10.25 C72.22954839 20.2131613 74.05686274 28.89760164 73.26953125 41.87451172 C72.29734964 49.54100912 67.55486315 56.44494737 61.9140625 61.5390625 C50.91564323 69.93377435 40.33980984 70.28215164 27 70.125 C22.05 70.08375 17.1 70.0425 12 70 C12 84.85 12 99.7 12 115 C8.04 115 4.08 115 0 115 C0 77.05 0 39.1 0 0 Z " fill="#FAD300" transform="translate(172,89)"/>
<path d="M0 0 C2.3510061 2.3510061 4.06826871 4.37673086 5.93359375 7.0703125 C6.49369141 7.87533203 7.05378906 8.68035156 7.63085938 9.50976562 C8.22705078 10.37279297 8.82324219 11.23582031 9.4375 12.125 C10.70672141 13.95073627 11.97625759 15.77625375 13.24609375 17.6015625 C13.88015137 18.51454102 14.51420898 19.42751953 15.16748047 20.36816406 C17.76013737 24.09169742 20.37832041 27.79687203 23 31.5 C27.94871448 38.4986004 32.86669337 45.5183777 37.77807617 52.54321289 C42.05118585 58.6522997 46.34243221 64.74827775 50.65429688 70.83007812 C55.15325656 77.18658778 59.56620015 83.59562243 64 90 C64.33 62.61 64.66 35.22 65 7 C68.96 7 72.92 7 77 7 C77 47.26 77 87.52 77 129 C74.02146024 126.02146024 71.86534204 123.57485202 69.53125 120.17578125 C68.88381836 119.23814941 68.23638672 118.30051758 67.56933594 117.33447266 C66.88645508 116.33722168 66.20357422 115.3399707 65.5 114.3125 C64.05776129 112.22233212 62.61504939 110.13249068 61.171875 108.04296875 C60.46224609 107.01349121 59.75261719 105.98401367 59.02148438 104.92333984 C56.28954066 100.97257969 53.52558431 97.04517441 50.75 93.125 C50.26966309 92.4458252 49.78932617 91.76665039 49.29443359 91.06689453 C48.33882551 89.71610774 47.38293731 88.36551908 46.42675781 87.01513672 C39.47158217 77.19172471 32.53630397 67.35432943 25.625 57.5 C25.05410645 56.68748779 24.48321289 55.87497559 23.89501953 55.0378418 C23.34442871 54.2519165 22.79383789 53.46599121 22.2265625 52.65625 C21.74783691 51.97369141 21.26911133 51.29113281 20.77587891 50.58789062 C18.14388365 46.75242874 15.5802902 42.8704353 13 39 C12.67 66.39 12.34 93.78 12 122 C8.04 122 4.08 122 0 122 C0 81.74 0 41.48 0 0 Z " fill="#F9D201" transform="translate(269,221)"/>
<path d="M0 0 C4.67212773 3.9115488 9.39621397 8.49932134 11.6875 14.25 C11.6875 15.57 11.6875 16.89 11.6875 18.25 C7.58798153 18.7276138 3.76934689 18.94511605 -0.3125 18.25 C-2.4507645 16.41903099 -3.63737271 14.62422419 -5.0859375 12.22265625 C-6.72160634 9.59204235 -8.52875159 8.53480696 -11.3125 7.25 C-11.97765625 6.90582031 -12.6428125 6.56164062 -13.328125 6.20703125 C-22.02671763 3.4175611 -35.11097852 3.49161587 -43.375 7.4375 C-47.34735417 9.94859532 -50.2888921 12.69098024 -52.0625 17.125 C-52.85425323 23.85490243 -52.40081481 28.76157738 -48.3125 34.25 C-40.63679858 41.73249154 -29.022207 43.69712601 -18.9921875 46.42578125 C-5.70314478 50.08918202 7.70524199 54.10495152 15.6875 66.25 C19.0710137 73.01702739 18.64933582 81.20929797 16.9296875 88.43359375 C13.43125106 98.58456879 7.70205861 103.65745459 -1.72265625 108.484375 C-9.23097001 111.94396531 -15.80752763 112.43201274 -24 112.4375 C-24.94294922 112.44974609 -25.88589844 112.46199219 -26.85742188 112.47460938 C-35.12516565 112.49165627 -43.2013034 111.79271552 -50.625 107.875 C-51.79482422 107.27558594 -51.79482422 107.27558594 -52.98828125 106.6640625 C-60.02060138 102.38557529 -65.61939982 96.0124813 -67.98046875 87.9765625 C-68.25 86.0625 -68.25 86.0625 -68.3125 83.25 C-63.6925 83.25 -59.0725 83.25 -54.3125 83.25 C-53.961875 84.44625 -53.61125 85.6425 -53.25 86.875 C-50.86229438 93.17898915 -46.72185535 96.14625832 -40.72265625 98.89453125 C-35.80705895 100.65030432 -31.11125582 100.69248377 -25.9375 100.625 C-25.05578125 100.63660156 -24.1740625 100.64820313 -23.265625 100.66015625 C-13.78529448 100.61845392 -5.80162387 98.75562568 1.125 92.06640625 C4.81588243 87.77575543 5.15712293 82.8830705 4.9921875 77.421875 C4.40383953 73.22801001 2.42050188 70.58482566 -0.89575195 68.03051758 C-6.60738744 64.31534352 -12.52833134 62.23040938 -19 60.1875 C-20.06492676 59.84098389 -21.12985352 59.49446777 -22.22705078 59.13745117 C-27.69226111 57.3675773 -33.1763065 55.6822773 -38.6875 54.0625 C-49.6541626 50.69822502 -57.93088138 45.95935352 -64.3125 36.1875 C-66.93191171 28.67392431 -66.60541108 19.03341888 -63.375 11.8125 C-58.74038889 4.01910366 -51.67168541 -1.69157375 -43.21484375 -4.90234375 C-28.54007342 -8.08995652 -13.26807677 -7.00954999 0 0 Z " fill="#F9D200" transform="translate(234.3125,232.75)"/>
<path d="M0 0 C7.610625 -0.1546875 7.610625 -0.1546875 15.375 -0.3125 C16.95458496 -0.35802002 18.53416992 -0.40354004 20.16162109 -0.45043945 C28.31814272 -0.53036491 35.26755748 -0.14769413 42 5 C48.61635248 12.22812153 49.61282877 18.12591524 49.40234375 27.70703125 C49.05804134 33.35922704 47.14015021 37.13004906 43 41 C37.07332084 45.59847799 32.18966963 47.15431924 24.70703125 47.09765625 C23.41514893 47.09515869 22.1232666 47.09266113 20.79223633 47.09008789 C19.14892334 47.08098389 17.50561035 47.07187988 15.8125 47.0625 C7.9853125 47.0315625 7.9853125 47.0315625 0 47 C0 31.49 0 15.98 0 0 Z " fill="#121929" transform="translate(184,100)"/>
<path d="M0 0 C7.610625 -0.1546875 7.610625 -0.1546875 15.375 -0.3125 C16.95458496 -0.35802002 18.53416992 -0.40354004 20.16162109 -0.45043945 C28.33294663 -0.53050997 35.24118754 -0.1255667 42 5 C48.74761 12.16944087 49.64337859 18.48976635 49.40625 28.22265625 C48.71653542 34.63567544 45.90299378 38.41539908 41.18359375 42.6171875 C35.6013604 46.88524497 31.47972047 47.12491953 24.609375 47.09765625 C23.31999023 47.09515869 22.03060547 47.09266113 20.70214844 47.09008789 C18.25083496 47.07643188 18.25083496 47.07643188 15.75 47.0625 C7.95375 47.0315625 7.95375 47.0315625 0 47 C0 31.49 0 15.98 0 0 Z " fill="#121929" transform="translate(281,100)"/>
<path d="M0 0 C3.63 0 7.26 0 11 0 C11 22.44 11 44.88 11 68 C7.37 68 3.74 68 0 68 C0 58.76 0 49.52 0 40 C-34.65 40 -69.3 40 -105 40 C-105 36.04 -105 32.08 -105 28 C-70.35 28 -35.7 28 0 28 C0 18.76 0 9.52 0 0 Z " fill="#FAD300" transform="translate(270,356)"/>
</svg>
